<svg xmlns="http://www.w3.org/2000/svg" width="100" height="192" viewBox="60 8 100 192">
  <defs>
    <linearGradient id="towerGrad" x1="78" y1="0" x2="142" y2="0" gradientUnits="userSpaceOnUse">
      <stop offset="0" stop-color="#e93f9b"></stop>
      <stop offset="1" stop-color="#2fc4a7"></stop>
    </linearGradient>
  </defs>
  <g fill="none" stroke="url(#towerGrad)" stroke-width="1">
    <path d="M110 20 L110 30"></path>
    <path d="M110 30 L94 72 L126 72 Z"></path>
    <path d="M105 52 L115 52" stroke-width="0.6"></path>
    <path d="M101 62 L119 62" stroke-width="0.6"></path>
    <path d="M91 72 L129 72"></path>
    <path d="M93 72 L93 80 M127 72 L127 80 M93 80 L127 80" stroke-width="0.7"></path>
    <path d="M96 80 L96 146 M124 80 L124 146"></path>
    <path d="M103 84 L103 144 M110 84 L110 144 M117 84 L117 144" stroke-width="0.4" opacity="0.55"></path>
    <path d="M91 146 L129 146" stroke-width="0.7"></path>
    <path d="M96 146 L96 152 M124 146 L124 152"></path>
    <path d="M80 152 L140 152 M80 152 L80 194 M140 152 L140 194"></path>
    <path d="M87 158 L87 192 M94 158 L94 192 M126 158 L126 192 M133 158 L133 192" stroke-width="0.4" opacity="0.55"></path>
    <path d="M72 194 L148 194"></path>
  </g>
</svg>